<svg width="166" height="22" viewBox="0 0 166 22" fill="none" xmlns="http://www.w3.org/2000/svg">
<path d="M16.7344 7.03906V11.5234H18.9766C19.2839 11.5234 19.5729 11.4661 19.8438 11.3516C20.1146 11.2318 20.3516 11.0703 20.5547 10.8672C20.7578 10.6641 20.9167 10.4271 21.0312 10.1562C21.151 9.88021 21.2109 9.58854 21.2109 9.28125C21.2109 8.97396 21.151 8.6849 21.0312 8.41406C20.9167 8.13802 20.7578 7.89844 20.5547 7.69531C20.3516 7.49219 20.1146 7.33333 19.8438 7.21875C19.5729 7.09896 19.2839 7.03906 18.9766 7.03906H16.7344ZM16.7344 16H14.4922V4.79688H18.9766C19.388 4.79688 19.7839 4.85156 20.1641 4.96094C20.5443 5.0651 20.8984 5.21615 21.2266 5.41406C21.5599 5.60677 21.862 5.84115 22.1328 6.11719C22.4089 6.38802 22.6432 6.6901 22.8359 7.02344C23.0339 7.35677 23.1849 7.71354 23.2891 8.09375C23.3984 8.47396 23.4531 8.86979 23.4531 9.28125C23.4531 9.89583 23.3359 10.4766 23.1016 11.0234C22.8672 11.5651 22.5469 12.0391 22.1406 12.4453C21.7344 12.8516 21.2578 13.1719 20.7109 13.4062C20.1693 13.6406 19.5911 13.7578 18.9766 13.7578H16.7344V16ZM32.6328 11.7422C32.6328 12.3672 32.5208 12.9505 32.2969 13.4922C32.0729 14.0286 31.7682 14.4948 31.3828 14.8906C30.9974 15.2812 30.5443 15.5911 30.0234 15.8203C29.5078 16.0443 28.9531 16.1562 28.3594 16.1562C27.7708 16.1562 27.2161 16.0443 26.6953 15.8203C26.1797 15.5911 25.7266 15.2812 25.3359 14.8906C24.9505 14.4948 24.6458 14.0286 24.4219 13.4922C24.1979 12.9505 24.0859 12.3672 24.0859 11.7422C24.0859 11.1068 24.1979 10.5182 24.4219 9.97656C24.6458 9.4349 24.9505 8.96875 25.3359 8.57812C25.7266 8.18229 26.1797 7.8724 26.6953 7.64844C27.2161 7.42448 27.7708 7.3125 28.3594 7.3125C28.9531 7.3125 29.5078 7.41927 30.0234 7.63281C30.5443 7.84115 30.9974 8.14062 31.3828 8.53125C31.7682 8.91667 32.0729 9.38281 32.2969 9.92969C32.5208 10.4714 32.6328 11.0755 32.6328 11.7422ZM30.4844 11.7422C30.4844 11.3984 30.4271 11.0885 30.3125 10.8125C30.2031 10.5312 30.0521 10.2917 29.8594 10.0938C29.6667 9.89062 29.4401 9.73698 29.1797 9.63281C28.9245 9.52344 28.651 9.46875 28.3594 9.46875C28.0677 9.46875 27.7917 9.52344 27.5312 9.63281C27.276 9.73698 27.0521 9.89062 26.8594 10.0938C26.6719 10.2917 26.5234 10.5312 26.4141 10.8125C26.3047 11.0885 26.25 11.3984 26.25 11.7422C26.25 12.0651 26.3047 12.3646 26.4141 12.6406C26.5234 12.9167 26.6719 13.1562 26.8594 13.3594C27.0521 13.5625 27.276 13.724 27.5312 13.8438C27.7917 13.9583 28.0677 14.0156 28.3594 14.0156C28.651 14.0156 28.9245 13.9609 29.1797 13.8516C29.4401 13.7422 29.6667 13.5885 29.8594 13.3906C30.0521 13.1927 30.2031 12.9531 30.3125 12.6719C30.4271 12.3906 30.4844 12.0807 30.4844 11.7422ZM35.9453 16H33.8125V7.63281H34.3281L35.0312 8.625C35.375 8.3125 35.7656 8.07292 36.2031 7.90625C36.6406 7.73438 37.0938 7.64844 37.5625 7.64844H39.4453V9.77344H37.5625C37.3385 9.77344 37.1276 9.8151 36.9297 9.89844C36.7318 9.98177 36.5599 10.0964 36.4141 10.2422C36.2682 10.388 36.1536 10.5599 36.0703 10.7578C35.987 10.9557 35.9453 11.1667 35.9453 11.3906V16ZM44.6328 16C44.1172 16 43.6328 15.9036 43.1797 15.7109C42.7266 15.513 42.3281 15.2448 41.9844 14.9062C41.6458 14.5625 41.3776 14.1641 41.1797 13.7109C40.987 13.2578 40.8906 12.7734 40.8906 12.2578V9.77344H39.8516V7.64844H40.8906V4.30469H43.0156V7.64844H46.25V9.77344H43.0156V12.2578C43.0156 12.4818 43.0573 12.6927 43.1406 12.8906C43.224 13.0833 43.3385 13.2526 43.4844 13.3984C43.6302 13.5443 43.8021 13.6615 44 13.75C44.1979 13.8333 44.4089 13.875 44.6328 13.875H46.25V16H44.6328ZM55.5547 16H55.0391L54.2109 14.8516C54.0078 15.0339 53.7917 15.2057 53.5625 15.3672C53.3385 15.5234 53.1016 15.6615 52.8516 15.7812C52.6016 15.8958 52.3438 15.987 52.0781 16.0547C51.8177 16.1224 51.5521 16.1562 51.2812 16.1562C50.6927 16.1562 50.138 16.0573 49.6172 15.8594C49.1016 15.6615 48.6484 15.375 48.2578 15C47.8724 14.6198 47.5677 14.1562 47.3438 13.6094C47.1198 13.0625 47.0078 12.4401 47.0078 11.7422C47.0078 11.0911 47.1198 10.4948 47.3438 9.95312C47.5677 9.40625 47.8724 8.9375 48.2578 8.54688C48.6484 8.15625 49.1016 7.85417 49.6172 7.64062C50.138 7.42188 50.6927 7.3125 51.2812 7.3125C51.5521 7.3125 51.8203 7.34635 52.0859 7.41406C52.3516 7.48177 52.6094 7.57552 52.8594 7.69531C53.1094 7.8151 53.3464 7.95573 53.5703 8.11719C53.7995 8.27865 54.013 8.45312 54.2109 8.64062L55.0391 7.64844H55.5547V16ZM53.4062 11.7422C53.4062 11.4505 53.349 11.1693 53.2344 10.8984C53.125 10.6224 52.974 10.3802 52.7812 10.1719C52.5885 9.95833 52.362 9.78906 52.1016 9.66406C51.8464 9.53385 51.5729 9.46875 51.2812 9.46875C50.9896 9.46875 50.7135 9.51823 50.4531 9.61719C50.1979 9.71615 49.974 9.86198 49.7812 10.0547C49.5938 10.2474 49.4453 10.487 49.3359 10.7734C49.2266 11.0547 49.1719 11.3776 49.1719 11.7422C49.1719 12.1068 49.2266 12.4323 49.3359 12.7188C49.4453 13 49.5938 13.237 49.7812 13.4297C49.974 13.6224 50.1979 13.7682 50.4531 13.8672C50.7135 13.9661 50.9896 14.0156 51.2812 14.0156C51.5729 14.0156 51.8464 13.9531 52.1016 13.8281C52.362 13.6979 52.5885 13.5286 52.7812 13.3203C52.974 13.1068 53.125 12.8646 53.2344 12.5938C53.349 12.3177 53.4062 12.0339 53.4062 11.7422ZM59.3359 16H57.1875V4.30469H59.3359V16ZM73.5391 16H73.0234L72.1953 14.8516C71.9922 15.0339 71.776 15.2057 71.5469 15.3672C71.3229 15.5234 71.0859 15.6615 70.8359 15.7812C70.5859 15.8958 70.3281 15.987 70.0625 16.0547C69.8021 16.1224 69.5365 16.1562 69.2656 16.1562C68.6771 16.1562 68.1224 16.0469 67.6016 15.8281C67.0859 15.6042 66.6328 15.2969 66.2422 14.9062C65.8568 14.5104 65.5521 14.0443 65.3281 13.5078C65.1042 12.9661 64.9922 12.3776 64.9922 11.7422C64.9922 11.112 65.1042 10.526 65.3281 9.98438C65.5521 9.44271 65.8568 8.97396 66.2422 8.57812C66.6328 8.18229 67.0859 7.8724 67.6016 7.64844C68.1224 7.42448 68.6771 7.3125 69.2656 7.3125C69.4531 7.3125 69.6458 7.32812 69.8438 7.35938C70.0469 7.39062 70.2422 7.44271 70.4297 7.51562C70.6224 7.58333 70.8021 7.67448 70.9688 7.78906C71.1354 7.90365 71.276 8.04427 71.3906 8.21094V4.30469H73.5391V16ZM71.3906 11.7422C71.3906 11.4505 71.3333 11.1693 71.2188 10.8984C71.1094 10.6224 70.9583 10.3802 70.7656 10.1719C70.5729 9.95833 70.3464 9.78906 70.0859 9.66406C69.8307 9.53385 69.5573 9.46875 69.2656 9.46875C68.974 9.46875 68.6979 9.52083 68.4375 9.625C68.1823 9.72917 67.9583 9.88021 67.7656 10.0781C67.5781 10.2708 67.4297 10.5078 67.3203 10.7891C67.2109 11.0703 67.1562 11.388 67.1562 11.7422C67.1562 12.0495 67.2109 12.3411 67.3203 12.6172C67.4297 12.8932 67.5781 13.1354 67.7656 13.3438C67.9583 13.5521 68.1823 13.7161 68.4375 13.8359C68.6979 13.9557 68.974 14.0156 69.2656 14.0156C69.5573 14.0156 69.8307 13.9531 70.0859 13.8281C70.3464 13.6979 70.5729 13.5286 70.7656 13.3203C70.9583 13.1068 71.1094 12.8646 71.2188 12.5938C71.3333 12.3177 71.3906 12.0339 71.3906 11.7422ZM83.2578 11.7422C83.2578 12.3672 83.1458 12.9505 82.9219 13.4922C82.6979 14.0286 82.3932 14.4948 82.0078 14.8906C81.6224 15.2812 81.1693 15.5911 80.6484 15.8203C80.1328 16.0443 79.5781 16.1562 78.9844 16.1562C78.3958 16.1562 77.8411 16.0443 77.3203 15.8203C76.8047 15.5911 76.3516 15.2812 75.9609 14.8906C75.5755 14.4948 75.2708 14.0286 75.0469 13.4922C74.8229 12.9505 74.7109 12.3672 74.7109 11.7422C74.7109 11.1068 74.8229 10.5182 75.0469 9.97656C75.2708 9.4349 75.5755 8.96875 75.9609 8.57812C76.3516 8.18229 76.8047 7.8724 77.3203 7.64844C77.8411 7.42448 78.3958 7.3125 78.9844 7.3125C79.5781 7.3125 80.1328 7.41927 80.6484 7.63281C81.1693 7.84115 81.6224 8.14062 82.0078 8.53125C82.3932 8.91667 82.6979 9.38281 82.9219 9.92969C83.1458 10.4714 83.2578 11.0755 83.2578 11.7422ZM81.1094 11.7422C81.1094 11.3984 81.0521 11.0885 80.9375 10.8125C80.8281 10.5312 80.6771 10.2917 80.4844 10.0938C80.2917 9.89062 80.0651 9.73698 79.8047 9.63281C79.5495 9.52344 79.276 9.46875 78.9844 9.46875C78.6927 9.46875 78.4167 9.52344 78.1562 9.63281C77.901 9.73698 77.6771 9.89062 77.4844 10.0938C77.2969 10.2917 77.1484 10.5312 77.0391 10.8125C76.9297 11.0885 76.875 11.3984 76.875 11.7422C76.875 12.0651 76.9297 12.3646 77.0391 12.6406C77.1484 12.9167 77.2969 13.1562 77.4844 13.3594C77.6771 13.5625 77.901 13.724 78.1562 13.8438C78.4167 13.9583 78.6927 14.0156 78.9844 14.0156C79.276 14.0156 79.5495 13.9609 79.8047 13.8516C80.0651 13.7422 80.2917 13.5885 80.4844 13.3906C80.6771 13.1927 80.8281 12.9531 80.9375 12.6719C81.0521 12.3906 81.1094 12.0807 81.1094 11.7422ZM95.7422 11.5234V9.28125C95.7422 8.97396 95.6823 8.6849 95.5625 8.41406C95.4479 8.13802 95.2891 7.89844 95.0859 7.69531C94.8828 7.49219 94.6432 7.33333 94.3672 7.21875C94.0964 7.09896 93.8073 7.03906 93.5 7.03906C93.1927 7.03906 92.901 7.09896 92.625 7.21875C92.3542 7.33333 92.1172 7.49219 91.9141 7.69531C91.7109 7.89844 91.5495 8.13802 91.4297 8.41406C91.3151 8.6849 91.2578 8.97396 91.2578 9.28125V11.5234H95.7422ZM97.9844 16H95.7422V13.7578H91.2578V16H89.0234V9.28125C89.0234 8.66146 89.1406 8.08073 89.375 7.53906C89.6094 6.99219 89.9271 6.51562 90.3281 6.10938C90.7344 5.70312 91.2083 5.38281 91.75 5.14844C92.2969 4.91406 92.8802 4.79688 93.5 4.79688C94.1198 4.79688 94.7005 4.91406 95.2422 5.14844C95.7891 5.38281 96.2656 5.70312 96.6719 6.10938C97.0781 6.51562 97.3984 6.99219 97.6328 7.53906C97.8672 8.08073 97.9844 8.66146 97.9844 9.28125V16ZM101.852 16H99.7031V4.30469H101.852V16ZM109.633 15.0234C109.461 15.1797 109.276 15.3281 109.078 15.4688C108.885 15.6042 108.682 15.724 108.469 15.8281C108.255 15.9271 108.034 16.0052 107.805 16.0625C107.581 16.125 107.352 16.1562 107.117 16.1562C106.602 16.1562 106.117 16.0651 105.664 15.8828C105.211 15.7005 104.812 15.4427 104.469 15.1094C104.13 14.7708 103.862 14.362 103.664 13.8828C103.471 13.3984 103.375 12.8568 103.375 12.2578V7.63281H105.5V12.2578C105.5 12.5391 105.542 12.7917 105.625 13.0156C105.714 13.2344 105.831 13.4193 105.977 13.5703C106.122 13.7214 106.292 13.8359 106.484 13.9141C106.682 13.9922 106.893 14.0312 107.117 14.0312C107.336 14.0312 107.542 13.9818 107.734 13.8828C107.932 13.7786 108.104 13.6432 108.25 13.4766C108.396 13.3099 108.51 13.1224 108.594 12.9141C108.677 12.7005 108.719 12.4818 108.719 12.2578V7.63281H110.852V16H110.336L109.633 15.0234ZM114.617 16H112.484V7.63281H113L113.703 8.44531C114.047 8.13281 114.435 7.89323 114.867 7.72656C115.305 7.55469 115.76 7.46875 116.234 7.46875C116.745 7.46875 117.227 7.56771 117.68 7.76562C118.133 7.95833 118.529 8.22656 118.867 8.57031C119.206 8.90885 119.471 9.30729 119.664 9.76562C119.862 10.2188 119.961 10.7031 119.961 11.2188V16H117.828V11.2188C117.828 11 117.786 10.7943 117.703 10.6016C117.62 10.4036 117.505 10.2318 117.359 10.0859C117.214 9.9401 117.044 9.82552 116.852 9.74219C116.659 9.65885 116.453 9.61719 116.234 9.61719C116.01 9.61719 115.799 9.65885 115.602 9.74219C115.404 9.82552 115.232 9.9401 115.086 10.0859C114.94 10.2318 114.826 10.4036 114.742 10.6016C114.659 10.7943 114.617 11 114.617 11.2188V16ZM129.57 11.7422C129.57 12.3672 129.458 12.9505 129.234 13.4922C129.01 14.0286 128.706 14.4948 128.32 14.8906C127.935 15.2812 127.482 15.5911 126.961 15.8203C126.445 16.0443 125.891 16.1562 125.297 16.1562C124.708 16.1562 124.154 16.0443 123.633 15.8203C123.117 15.5911 122.664 15.2812 122.273 14.8906C121.888 14.4948 121.583 14.0286 121.359 13.4922C121.135 12.9505 121.023 12.3672 121.023 11.7422C121.023 11.1068 121.135 10.5182 121.359 9.97656C121.583 9.4349 121.888 8.96875 122.273 8.57812C122.664 8.18229 123.117 7.8724 123.633 7.64844C124.154 7.42448 124.708 7.3125 125.297 7.3125C125.891 7.3125 126.445 7.41927 126.961 7.63281C127.482 7.84115 127.935 8.14062 128.32 8.53125C128.706 8.91667 129.01 9.38281 129.234 9.92969C129.458 10.4714 129.57 11.0755 129.57 11.7422ZM127.422 11.7422C127.422 11.3984 127.365 11.0885 127.25 10.8125C127.141 10.5312 126.99 10.2917 126.797 10.0938C126.604 9.89062 126.378 9.73698 126.117 9.63281C125.862 9.52344 125.589 9.46875 125.297 9.46875C125.005 9.46875 124.729 9.52344 124.469 9.63281C124.214 9.73698 123.99 9.89062 123.797 10.0938C123.609 10.2917 123.461 10.5312 123.352 10.8125C123.242 11.0885 123.188 11.3984 123.188 11.7422C123.188 12.0651 123.242 12.3646 123.352 12.6406C123.461 12.9167 123.609 13.1562 123.797 13.3594C123.99 13.5625 124.214 13.724 124.469 13.8438C124.729 13.9583 125.005 14.0156 125.297 14.0156C125.589 14.0156 125.862 13.9609 126.117 13.8516C126.378 13.7422 126.604 13.5885 126.797 13.3906C126.99 13.1927 127.141 12.9531 127.25 12.6719C127.365 12.3906 127.422 12.0807 127.422 11.7422Z" fill="#00C4CC"/>
</svg>
