<svg width="186" height="33" viewBox="0 0 186 33" fill="none" xmlns="http://www.w3.org/2000/svg">
<path d="M17.7803 12.479V17.2437H20.1626C20.4891 17.2437 20.7962 17.1828 21.084 17.061C21.3717 16.9338 21.6235 16.7622 21.8394 16.5464C22.0552 16.3306 22.224 16.0788 22.3457 15.791C22.473 15.4977 22.5366 15.1878 22.5366 14.8613C22.5366 14.5348 22.473 14.2277 22.3457 13.9399C22.224 13.6466 22.0552 13.3921 21.8394 13.1763C21.6235 12.9604 21.3717 12.7917 21.084 12.6699C20.7962 12.5426 20.4891 12.479 20.1626 12.479H17.7803ZM17.7803 22H15.3979V10.0967H20.1626C20.5998 10.0967 21.0203 10.1548 21.4243 10.271C21.8283 10.3817 22.2046 10.5422 22.5532 10.7524C22.9074 10.9572 23.2284 11.2062 23.5161 11.4995C23.8094 11.7873 24.0584 12.1082 24.2632 12.4624C24.4735 12.8166 24.634 13.1956 24.7446 13.5996C24.8608 14.0036 24.9189 14.4242 24.9189 14.8613C24.9189 15.5143 24.7944 16.1313 24.5454 16.7124C24.2964 17.2879 23.9561 17.7915 23.5244 18.2231C23.0928 18.6548 22.5864 18.9951 22.0054 19.2441C21.4299 19.4932 20.8156 19.6177 20.1626 19.6177H17.7803V22ZM34.6724 17.4761C34.6724 18.1401 34.5534 18.7599 34.3154 19.3354C34.0775 19.9054 33.7537 20.4007 33.3442 20.8213C32.9347 21.2363 32.4533 21.5656 31.8999 21.8091C31.3521 22.047 30.7627 22.166 30.1318 22.166C29.5065 22.166 28.9172 22.047 28.3638 21.8091C27.8159 21.5656 27.3345 21.2363 26.9194 20.8213C26.5099 20.4007 26.1862 19.9054 25.9482 19.3354C25.7103 18.7599 25.5913 18.1401 25.5913 17.4761C25.5913 16.8009 25.7103 16.1756 25.9482 15.6001C26.1862 15.0246 26.5099 14.5293 26.9194 14.1143C27.3345 13.6937 27.8159 13.3644 28.3638 13.1265C28.9172 12.8885 29.5065 12.7695 30.1318 12.7695C30.7627 12.7695 31.3521 12.883 31.8999 13.1099C32.4533 13.3312 32.9347 13.6494 33.3442 14.0645C33.7537 14.474 34.0775 14.9692 34.3154 15.5503C34.5534 16.1258 34.6724 16.7677 34.6724 17.4761ZM32.3896 17.4761C32.3896 17.1108 32.3288 16.7816 32.207 16.4883C32.0908 16.1895 31.9303 15.9349 31.7256 15.7246C31.5208 15.5088 31.2801 15.3455 31.0034 15.2349C30.7323 15.1187 30.4417 15.0605 30.1318 15.0605C29.8219 15.0605 29.5286 15.1187 29.252 15.2349C28.9808 15.3455 28.7428 15.5088 28.5381 15.7246C28.3389 15.9349 28.1812 16.1895 28.0649 16.4883C27.9487 16.7816 27.8906 17.1108 27.8906 17.4761C27.8906 17.8192 27.9487 18.1374 28.0649 18.4307C28.1812 18.724 28.3389 18.9785 28.5381 19.1943C28.7428 19.4102 28.9808 19.5817 29.252 19.709C29.5286 19.8307 29.8219 19.8916 30.1318 19.8916C30.4417 19.8916 30.7323 19.8335 31.0034 19.7173C31.2801 19.6011 31.5208 19.4378 31.7256 19.2275C31.9303 19.0173 32.0908 18.7627 32.207 18.4639C32.3288 18.165 32.3896 17.8358 32.3896 17.4761ZM38.1919 22H35.9258V13.1099H36.4736L37.2207 14.1641C37.5859 13.832 38.001 13.5775 38.4658 13.4004C38.9307 13.2178 39.4121 13.1265 39.9102 13.1265H41.9106V15.3843H39.9102C39.6722 15.3843 39.4481 15.4285 39.2378 15.5171C39.0275 15.6056 38.8449 15.7274 38.6899 15.8823C38.535 16.0373 38.4132 16.2199 38.3247 16.4302C38.2362 16.6405 38.1919 16.8646 38.1919 17.1025V22ZM47.4224 22C46.8745 22 46.3599 21.8976 45.8784 21.6929C45.397 21.4826 44.9736 21.1976 44.6084 20.8379C44.2487 20.4727 43.9637 20.0493 43.7534 19.5679C43.5487 19.0864 43.4463 18.5718 43.4463 18.0239V15.3843H42.3423V13.1265H43.4463V9.57373H45.7041V13.1265H49.1406V15.3843H45.7041V18.0239C45.7041 18.2619 45.7484 18.486 45.8369 18.6963C45.9255 18.901 46.0472 19.0809 46.2021 19.2358C46.3571 19.3908 46.5397 19.5153 46.75 19.6094C46.9603 19.6979 47.1844 19.7422 47.4224 19.7422H49.1406V22H47.4224ZM59.0269 22H58.479L57.5991 20.7798C57.3833 20.9735 57.1536 21.1561 56.9102 21.3276C56.6722 21.4937 56.4204 21.6403 56.1548 21.7676C55.8892 21.8893 55.6152 21.9862 55.333 22.0581C55.0563 22.13 54.7741 22.166 54.4863 22.166C53.861 22.166 53.2716 22.0609 52.7183 21.8506C52.1704 21.6403 51.689 21.3359 51.2739 20.9375C50.8644 20.5335 50.5407 20.041 50.3027 19.46C50.0648 18.8789 49.9458 18.2176 49.9458 17.4761C49.9458 16.7843 50.0648 16.1507 50.3027 15.5752C50.5407 14.9941 50.8644 14.4961 51.2739 14.0811C51.689 13.666 52.1704 13.3451 52.7183 13.1182C53.2716 12.8857 53.861 12.7695 54.4863 12.7695C54.7741 12.7695 55.0591 12.8055 55.3413 12.8774C55.6235 12.9494 55.8975 13.049 56.1631 13.1763C56.4287 13.3035 56.6805 13.453 56.9185 13.6245C57.1619 13.7961 57.3888 13.9814 57.5991 14.1807L58.479 13.1265H59.0269V22ZM56.7441 17.4761C56.7441 17.1662 56.6833 16.8674 56.5615 16.5796C56.4453 16.2863 56.2848 16.029 56.0801 15.8076C55.8753 15.5807 55.6346 15.4009 55.3579 15.2681C55.0868 15.1297 54.7962 15.0605 54.4863 15.0605C54.1764 15.0605 53.8831 15.1131 53.6064 15.2183C53.3353 15.3234 53.0973 15.4784 52.8926 15.6831C52.6934 15.8879 52.5356 16.1424 52.4194 16.4468C52.3032 16.7456 52.2451 17.0887 52.2451 17.4761C52.2451 17.8634 52.3032 18.2093 52.4194 18.5137C52.5356 18.8125 52.6934 19.0643 52.8926 19.269C53.0973 19.4738 53.3353 19.6287 53.6064 19.7339C53.8831 19.839 54.1764 19.8916 54.4863 19.8916C54.7962 19.8916 55.0868 19.8252 55.3579 19.6924C55.6346 19.554 55.8753 19.3742 56.0801 19.1528C56.2848 18.9259 56.4453 18.6686 56.5615 18.3809C56.6833 18.0876 56.7441 17.786 56.7441 17.4761ZM63.0444 22H60.7617V9.57373H63.0444V22ZM78.1353 22H77.5874L76.7075 20.7798C76.4917 20.9735 76.262 21.1561 76.0186 21.3276C75.7806 21.4937 75.5288 21.6403 75.2632 21.7676C74.9976 21.8893 74.7236 21.9862 74.4414 22.0581C74.1647 22.13 73.8825 22.166 73.5947 22.166C72.9694 22.166 72.38 22.0498 71.8267 21.8174C71.2788 21.5794 70.7974 21.2529 70.3823 20.8379C69.9728 20.4173 69.6491 19.922 69.4111 19.3521C69.1732 18.7765 69.0542 18.1512 69.0542 17.4761C69.0542 16.8065 69.1732 16.1839 69.4111 15.6084C69.6491 15.0329 69.9728 14.5348 70.3823 14.1143C70.7974 13.6937 71.2788 13.3644 71.8267 13.1265C72.38 12.8885 72.9694 12.7695 73.5947 12.7695C73.7939 12.7695 73.9987 12.7861 74.209 12.8193C74.4248 12.8525 74.6323 12.9079 74.8315 12.9854C75.0363 13.0573 75.2272 13.1541 75.4043 13.2759C75.5814 13.3976 75.7308 13.547 75.8525 13.7241V9.57373H78.1353V22ZM75.8525 17.4761C75.8525 17.1662 75.7917 16.8674 75.6699 16.5796C75.5537 16.2863 75.3932 16.029 75.1885 15.8076C74.9837 15.5807 74.743 15.4009 74.4663 15.2681C74.1951 15.1297 73.9046 15.0605 73.5947 15.0605C73.2848 15.0605 72.9915 15.1159 72.7148 15.2266C72.4437 15.3372 72.2057 15.4977 72.001 15.708C71.8018 15.9128 71.644 16.1646 71.5278 16.4634C71.4116 16.7622 71.3535 17.0998 71.3535 17.4761C71.3535 17.8026 71.4116 18.1125 71.5278 18.4058C71.644 18.6991 71.8018 18.9564 72.001 19.1777C72.2057 19.3991 72.4437 19.5734 72.7148 19.7007C72.9915 19.828 73.2848 19.8916 73.5947 19.8916C73.9046 19.8916 74.1951 19.8252 74.4663 19.6924C74.743 19.554 74.9837 19.3742 75.1885 19.1528C75.3932 18.9259 75.5537 18.6686 75.6699 18.3809C75.7917 18.0876 75.8525 17.786 75.8525 17.4761ZM88.4614 17.4761C88.4614 18.1401 88.3424 18.7599 88.1045 19.3354C87.8665 19.9054 87.5428 20.4007 87.1333 20.8213C86.7238 21.2363 86.2424 21.5656 85.689 21.8091C85.1411 22.047 84.5518 22.166 83.9209 22.166C83.2956 22.166 82.7062 22.047 82.1528 21.8091C81.605 21.5656 81.1235 21.2363 80.7085 20.8213C80.299 20.4007 79.9753 19.9054 79.7373 19.3354C79.4993 18.7599 79.3804 18.1401 79.3804 17.4761C79.3804 16.8009 79.4993 16.1756 79.7373 15.6001C79.9753 15.0246 80.299 14.5293 80.7085 14.1143C81.1235 13.6937 81.605 13.3644 82.1528 13.1265C82.7062 12.8885 83.2956 12.7695 83.9209 12.7695C84.5518 12.7695 85.1411 12.883 85.689 13.1099C86.2424 13.3312 86.7238 13.6494 87.1333 14.0645C87.5428 14.474 87.8665 14.9692 88.1045 15.5503C88.3424 16.1258 88.4614 16.7677 88.4614 17.4761ZM86.1787 17.4761C86.1787 17.1108 86.1178 16.7816 85.9961 16.4883C85.8799 16.1895 85.7194 15.9349 85.5146 15.7246C85.3099 15.5088 85.0692 15.3455 84.7925 15.2349C84.5213 15.1187 84.2308 15.0605 83.9209 15.0605C83.611 15.0605 83.3177 15.1187 83.041 15.2349C82.7699 15.3455 82.5319 15.5088 82.3271 15.7246C82.1279 15.9349 81.9702 16.1895 81.854 16.4883C81.7378 16.7816 81.6797 17.1108 81.6797 17.4761C81.6797 17.8192 81.7378 18.1374 81.854 18.4307C81.9702 18.724 82.1279 18.9785 82.3271 19.1943C82.5319 19.4102 82.7699 19.5817 83.041 19.709C83.3177 19.8307 83.611 19.8916 83.9209 19.8916C84.2308 19.8916 84.5213 19.8335 84.7925 19.7173C85.0692 19.6011 85.3099 19.4378 85.5146 19.2275C85.7194 19.0173 85.8799 18.7627 85.9961 18.4639C86.1178 18.165 86.1787 17.8358 86.1787 17.4761ZM101.726 17.2437V14.8613C101.726 14.5348 101.662 14.2277 101.535 13.9399C101.413 13.6466 101.245 13.3921 101.029 13.1763C100.813 12.9604 100.558 12.7917 100.265 12.6699C99.9774 12.5426 99.6702 12.479 99.3438 12.479C99.0173 12.479 98.7074 12.5426 98.4141 12.6699C98.1263 12.7917 97.8745 12.9604 97.6587 13.1763C97.4429 13.3921 97.2713 13.6466 97.144 13.9399C97.0223 14.2277 96.9614 14.5348 96.9614 14.8613V17.2437H101.726ZM104.108 22H101.726V19.6177H96.9614V22H94.5874V14.8613C94.5874 14.2028 94.7119 13.5858 94.9609 13.0103C95.21 12.4292 95.5475 11.9229 95.9736 11.4912C96.4053 11.0596 96.9089 10.7192 97.4844 10.4702C98.0654 10.2212 98.6852 10.0967 99.3438 10.0967C100.002 10.0967 100.619 10.2212 101.195 10.4702C101.776 10.7192 102.282 11.0596 102.714 11.4912C103.146 11.9229 103.486 12.4292 103.735 13.0103C103.984 13.5858 104.108 14.2028 104.108 14.8613V22ZM108.217 22H105.935V9.57373H108.217V22ZM116.485 20.9624C116.302 21.1284 116.106 21.2861 115.896 21.4355C115.691 21.5794 115.475 21.7067 115.248 21.8174C115.021 21.9225 114.786 22.0055 114.542 22.0664C114.305 22.1328 114.061 22.166 113.812 22.166C113.264 22.166 112.75 22.0692 112.268 21.8755C111.787 21.6818 111.363 21.4079 110.998 21.0537C110.638 20.694 110.353 20.2596 110.143 19.7505C109.938 19.2358 109.836 18.6603 109.836 18.0239V13.1099H112.094V18.0239C112.094 18.3228 112.138 18.5911 112.227 18.8291C112.321 19.0615 112.445 19.258 112.6 19.4185C112.755 19.5789 112.935 19.7007 113.14 19.7837C113.35 19.8667 113.574 19.9082 113.812 19.9082C114.044 19.9082 114.263 19.8556 114.468 19.7505C114.678 19.6398 114.861 19.4959 115.016 19.3188C115.171 19.1418 115.292 18.9425 115.381 18.7212C115.469 18.4943 115.514 18.2619 115.514 18.0239V13.1099H117.78V22H117.232L116.485 20.9624ZM121.781 22H119.515V13.1099H120.062L120.81 13.9731C121.175 13.6411 121.587 13.3866 122.046 13.2095C122.511 13.0269 122.995 12.9355 123.499 12.9355C124.041 12.9355 124.553 13.0407 125.035 13.251C125.516 13.4557 125.937 13.7407 126.296 14.106C126.656 14.4657 126.938 14.889 127.143 15.376C127.353 15.8574 127.458 16.3721 127.458 16.9199V22H125.192V16.9199C125.192 16.6875 125.148 16.4689 125.06 16.2642C124.971 16.0539 124.849 15.8713 124.694 15.7163C124.539 15.5614 124.36 15.4396 124.155 15.3511C123.95 15.2625 123.731 15.2183 123.499 15.2183C123.261 15.2183 123.037 15.2625 122.827 15.3511C122.616 15.4396 122.434 15.5614 122.279 15.7163C122.124 15.8713 122.002 16.0539 121.914 16.2642C121.825 16.4689 121.781 16.6875 121.781 16.9199V22ZM137.668 17.4761C137.668 18.1401 137.549 18.7599 137.312 19.3354C137.074 19.9054 136.75 20.4007 136.34 20.8213C135.931 21.2363 135.449 21.5656 134.896 21.8091C134.348 22.047 133.759 22.166 133.128 22.166C132.503 22.166 131.913 22.047 131.36 21.8091C130.812 21.5656 130.331 21.2363 129.916 20.8213C129.506 20.4007 129.182 19.9054 128.944 19.3354C128.706 18.7599 128.587 18.1401 128.587 17.4761C128.587 16.8009 128.706 16.1756 128.944 15.6001C129.182 15.0246 129.506 14.5293 129.916 14.1143C130.331 13.6937 130.812 13.3644 131.36 13.1265C131.913 12.8885 132.503 12.7695 133.128 12.7695C133.759 12.7695 134.348 12.883 134.896 13.1099C135.449 13.3312 135.931 13.6494 136.34 14.0645C136.75 14.474 137.074 14.9692 137.312 15.5503C137.549 16.1258 137.668 16.7677 137.668 17.4761ZM135.386 17.4761C135.386 17.1108 135.325 16.7816 135.203 16.4883C135.087 16.1895 134.926 15.9349 134.722 15.7246C134.517 15.5088 134.276 15.3455 134 15.2349C133.728 15.1187 133.438 15.0605 133.128 15.0605C132.818 15.0605 132.525 15.1187 132.248 15.2349C131.977 15.3455 131.739 15.5088 131.534 15.7246C131.335 15.9349 131.177 16.1895 131.061 16.4883C130.945 16.7816 130.887 17.1108 130.887 17.4761C130.887 17.8192 130.945 18.1374 131.061 18.4307C131.177 18.724 131.335 18.9785 131.534 19.1943C131.739 19.4102 131.977 19.5817 132.248 19.709C132.525 19.8307 132.818 19.8916 133.128 19.8916C133.438 19.8916 133.728 19.8335 134 19.7173C134.276 19.6011 134.517 19.4378 134.722 19.2275C134.926 19.0173 135.087 18.7627 135.203 18.4639C135.325 18.165 135.386 17.8358 135.386 17.4761Z" fill="#00BD28"/>
<path d="M147 -1.5863e-06L173.313 16.1378L147 32.2756V-1.5863e-06ZM170.444 16.1378L148.737 2.82652V29.4485L170.444 16.1378Z" fill="#00BD28"/>
</svg>
