<svg width="166" height="25" viewBox="0 0 166 25" fill="none" xmlns="http://www.w3.org/2000/svg">
<path d="M16.7344 8.03906V12.5234H18.9766C19.2839 12.5234 19.5729 12.4661 19.8438 12.3516C20.1146 12.2318 20.3516 12.0703 20.5547 11.8672C20.7578 11.6641 20.9167 11.4271 21.0312 11.1562C21.151 10.8802 21.2109 10.5885 21.2109 10.2812C21.2109 9.97396 21.151 9.6849 21.0312 9.41406C20.9167 9.13802 20.7578 8.89844 20.5547 8.69531C20.3516 8.49219 20.1146 8.33333 19.8438 8.21875C19.5729 8.09896 19.2839 8.03906 18.9766 8.03906H16.7344ZM16.7344 17H14.4922V5.79688H18.9766C19.388 5.79688 19.7839 5.85156 20.1641 5.96094C20.5443 6.0651 20.8984 6.21615 21.2266 6.41406C21.5599 6.60677 21.862 6.84115 22.1328 7.11719C22.4089 7.38802 22.6432 7.6901 22.8359 8.02344C23.0339 8.35677 23.1849 8.71354 23.2891 9.09375C23.3984 9.47396 23.4531 9.86979 23.4531 10.2812C23.4531 10.8958 23.3359 11.4766 23.1016 12.0234C22.8672 12.5651 22.5469 13.0391 22.1406 13.4453C21.7344 13.8516 21.2578 14.1719 20.7109 14.4062C20.1693 14.6406 19.5911 14.7578 18.9766 14.7578H16.7344V17ZM32.6328 12.7422C32.6328 13.3672 32.5208 13.9505 32.2969 14.4922C32.0729 15.0286 31.7682 15.4948 31.3828 15.8906C30.9974 16.2812 30.5443 16.5911 30.0234 16.8203C29.5078 17.0443 28.9531 17.1562 28.3594 17.1562C27.7708 17.1562 27.2161 17.0443 26.6953 16.8203C26.1797 16.5911 25.7266 16.2812 25.3359 15.8906C24.9505 15.4948 24.6458 15.0286 24.4219 14.4922C24.1979 13.9505 24.0859 13.3672 24.0859 12.7422C24.0859 12.1068 24.1979 11.5182 24.4219 10.9766C24.6458 10.4349 24.9505 9.96875 25.3359 9.57812C25.7266 9.18229 26.1797 8.8724 26.6953 8.64844C27.2161 8.42448 27.7708 8.3125 28.3594 8.3125C28.9531 8.3125 29.5078 8.41927 30.0234 8.63281C30.5443 8.84115 30.9974 9.14062 31.3828 9.53125C31.7682 9.91667 32.0729 10.3828 32.2969 10.9297C32.5208 11.4714 32.6328 12.0755 32.6328 12.7422ZM30.4844 12.7422C30.4844 12.3984 30.4271 12.0885 30.3125 11.8125C30.2031 11.5312 30.0521 11.2917 29.8594 11.0938C29.6667 10.8906 29.4401 10.737 29.1797 10.6328C28.9245 10.5234 28.651 10.4688 28.3594 10.4688C28.0677 10.4688 27.7917 10.5234 27.5312 10.6328C27.276 10.737 27.0521 10.8906 26.8594 11.0938C26.6719 11.2917 26.5234 11.5312 26.4141 11.8125C26.3047 12.0885 26.25 12.3984 26.25 12.7422C26.25 13.0651 26.3047 13.3646 26.4141 13.6406C26.5234 13.9167 26.6719 14.1562 26.8594 14.3594C27.0521 14.5625 27.276 14.724 27.5312 14.8438C27.7917 14.9583 28.0677 15.0156 28.3594 15.0156C28.651 15.0156 28.9245 14.9609 29.1797 14.8516C29.4401 14.7422 29.6667 14.5885 29.8594 14.3906C30.0521 14.1927 30.2031 13.9531 30.3125 13.6719C30.4271 13.3906 30.4844 13.0807 30.4844 12.7422ZM35.9453 17H33.8125V8.63281H34.3281L35.0312 9.625C35.375 9.3125 35.7656 9.07292 36.2031 8.90625C36.6406 8.73438 37.0938 8.64844 37.5625 8.64844H39.4453V10.7734H37.5625C37.3385 10.7734 37.1276 10.8151 36.9297 10.8984C36.7318 10.9818 36.5599 11.0964 36.4141 11.2422C36.2682 11.388 36.1536 11.5599 36.0703 11.7578C35.987 11.9557 35.9453 12.1667 35.9453 12.3906V17ZM44.6328 17C44.1172 17 43.6328 16.9036 43.1797 16.7109C42.7266 16.513 42.3281 16.2448 41.9844 15.9062C41.6458 15.5625 41.3776 15.1641 41.1797 14.7109C40.987 14.2578 40.8906 13.7734 40.8906 13.2578V10.7734H39.8516V8.64844H40.8906V5.30469H43.0156V8.64844H46.25V10.7734H43.0156V13.2578C43.0156 13.4818 43.0573 13.6927 43.1406 13.8906C43.224 14.0833 43.3385 14.2526 43.4844 14.3984C43.6302 14.5443 43.8021 14.6615 44 14.75C44.1979 14.8333 44.4089 14.875 44.6328 14.875H46.25V17H44.6328ZM55.5547 17H55.0391L54.2109 15.8516C54.0078 16.0339 53.7917 16.2057 53.5625 16.3672C53.3385 16.5234 53.1016 16.6615 52.8516 16.7812C52.6016 16.8958 52.3438 16.987 52.0781 17.0547C51.8177 17.1224 51.5521 17.1562 51.2812 17.1562C50.6927 17.1562 50.138 17.0573 49.6172 16.8594C49.1016 16.6615 48.6484 16.375 48.2578 16C47.8724 15.6198 47.5677 15.1562 47.3438 14.6094C47.1198 14.0625 47.0078 13.4401 47.0078 12.7422C47.0078 12.0911 47.1198 11.4948 47.3438 10.9531C47.5677 10.4062 47.8724 9.9375 48.2578 9.54688C48.6484 9.15625 49.1016 8.85417 49.6172 8.64062C50.138 8.42188 50.6927 8.3125 51.2812 8.3125C51.5521 8.3125 51.8203 8.34635 52.0859 8.41406C52.3516 8.48177 52.6094 8.57552 52.8594 8.69531C53.1094 8.8151 53.3464 8.95573 53.5703 9.11719C53.7995 9.27865 54.013 9.45312 54.2109 9.64062L55.0391 8.64844H55.5547V17ZM53.4062 12.7422C53.4062 12.4505 53.349 12.1693 53.2344 11.8984C53.125 11.6224 52.974 11.3802 52.7812 11.1719C52.5885 10.9583 52.362 10.7891 52.1016 10.6641C51.8464 10.5339 51.5729 10.4688 51.2812 10.4688C50.9896 10.4688 50.7135 10.5182 50.4531 10.6172C50.1979 10.7161 49.974 10.862 49.7812 11.0547C49.5938 11.2474 49.4453 11.487 49.3359 11.7734C49.2266 12.0547 49.1719 12.3776 49.1719 12.7422C49.1719 13.1068 49.2266 13.4323 49.3359 13.7188C49.4453 14 49.5938 14.237 49.7812 14.4297C49.974 14.6224 50.1979 14.7682 50.4531 14.8672C50.7135 14.9661 50.9896 15.0156 51.2812 15.0156C51.5729 15.0156 51.8464 14.9531 52.1016 14.8281C52.362 14.6979 52.5885 14.5286 52.7812 14.3203C52.974 14.1068 53.125 13.8646 53.2344 13.5938C53.349 13.3177 53.4062 13.0339 53.4062 12.7422ZM59.3359 17H57.1875V5.30469H59.3359V17ZM73.5391 17H73.0234L72.1953 15.8516C71.9922 16.0339 71.776 16.2057 71.5469 16.3672C71.3229 16.5234 71.0859 16.6615 70.8359 16.7812C70.5859 16.8958 70.3281 16.987 70.0625 17.0547C69.8021 17.1224 69.5365 17.1562 69.2656 17.1562C68.6771 17.1562 68.1224 17.0469 67.6016 16.8281C67.0859 16.6042 66.6328 16.2969 66.2422 15.9062C65.8568 15.5104 65.5521 15.0443 65.3281 14.5078C65.1042 13.9661 64.9922 13.3776 64.9922 12.7422C64.9922 12.112 65.1042 11.526 65.3281 10.9844C65.5521 10.4427 65.8568 9.97396 66.2422 9.57812C66.6328 9.18229 67.0859 8.8724 67.6016 8.64844C68.1224 8.42448 68.6771 8.3125 69.2656 8.3125C69.4531 8.3125 69.6458 8.32812 69.8438 8.35938C70.0469 8.39062 70.2422 8.44271 70.4297 8.51562C70.6224 8.58333 70.8021 8.67448 70.9688 8.78906C71.1354 8.90365 71.276 9.04427 71.3906 9.21094V5.30469H73.5391V17ZM71.3906 12.7422C71.3906 12.4505 71.3333 12.1693 71.2188 11.8984C71.1094 11.6224 70.9583 11.3802 70.7656 11.1719C70.5729 10.9583 70.3464 10.7891 70.0859 10.6641C69.8307 10.5339 69.5573 10.4688 69.2656 10.4688C68.974 10.4688 68.6979 10.5208 68.4375 10.625C68.1823 10.7292 67.9583 10.8802 67.7656 11.0781C67.5781 11.2708 67.4297 11.5078 67.3203 11.7891C67.2109 12.0703 67.1562 12.388 67.1562 12.7422C67.1562 13.0495 67.2109 13.3411 67.3203 13.6172C67.4297 13.8932 67.5781 14.1354 67.7656 14.3438C67.9583 14.5521 68.1823 14.7161 68.4375 14.8359C68.6979 14.9557 68.974 15.0156 69.2656 15.0156C69.5573 15.0156 69.8307 14.9531 70.0859 14.8281C70.3464 14.6979 70.5729 14.5286 70.7656 14.3203C70.9583 14.1068 71.1094 13.8646 71.2188 13.5938C71.3333 13.3177 71.3906 13.0339 71.3906 12.7422ZM83.2578 12.7422C83.2578 13.3672 83.1458 13.9505 82.9219 14.4922C82.6979 15.0286 82.3932 15.4948 82.0078 15.8906C81.6224 16.2812 81.1693 16.5911 80.6484 16.8203C80.1328 17.0443 79.5781 17.1562 78.9844 17.1562C78.3958 17.1562 77.8411 17.0443 77.3203 16.8203C76.8047 16.5911 76.3516 16.2812 75.9609 15.8906C75.5755 15.4948 75.2708 15.0286 75.0469 14.4922C74.8229 13.9505 74.7109 13.3672 74.7109 12.7422C74.7109 12.1068 74.8229 11.5182 75.0469 10.9766C75.2708 10.4349 75.5755 9.96875 75.9609 9.57812C76.3516 9.18229 76.8047 8.8724 77.3203 8.64844C77.8411 8.42448 78.3958 8.3125 78.9844 8.3125C79.5781 8.3125 80.1328 8.41927 80.6484 8.63281C81.1693 8.84115 81.6224 9.14062 82.0078 9.53125C82.3932 9.91667 82.6979 10.3828 82.9219 10.9297C83.1458 11.4714 83.2578 12.0755 83.2578 12.7422ZM81.1094 12.7422C81.1094 12.3984 81.0521 12.0885 80.9375 11.8125C80.8281 11.5312 80.6771 11.2917 80.4844 11.0938C80.2917 10.8906 80.0651 10.737 79.8047 10.6328C79.5495 10.5234 79.276 10.4688 78.9844 10.4688C78.6927 10.4688 78.4167 10.5234 78.1562 10.6328C77.901 10.737 77.6771 10.8906 77.4844 11.0938C77.2969 11.2917 77.1484 11.5312 77.0391 11.8125C76.9297 12.0885 76.875 12.3984 76.875 12.7422C76.875 13.0651 76.9297 13.3646 77.0391 13.6406C77.1484 13.9167 77.2969 14.1562 77.4844 14.3594C77.6771 14.5625 77.901 14.724 78.1562 14.8438C78.4167 14.9583 78.6927 15.0156 78.9844 15.0156C79.276 15.0156 79.5495 14.9609 79.8047 14.8516C80.0651 14.7422 80.2917 14.5885 80.4844 14.3906C80.6771 14.1927 80.8281 13.9531 80.9375 13.6719C81.0521 13.3906 81.1094 13.0807 81.1094 12.7422ZM95.7422 12.5234V10.2812C95.7422 9.97396 95.6823 9.6849 95.5625 9.41406C95.4479 9.13802 95.2891 8.89844 95.0859 8.69531C94.8828 8.49219 94.6432 8.33333 94.3672 8.21875C94.0964 8.09896 93.8073 8.03906 93.5 8.03906C93.1927 8.03906 92.901 8.09896 92.625 8.21875C92.3542 8.33333 92.1172 8.49219 91.9141 8.69531C91.7109 8.89844 91.5495 9.13802 91.4297 9.41406C91.3151 9.6849 91.2578 9.97396 91.2578 10.2812V12.5234H95.7422ZM97.9844 17H95.7422V14.7578H91.2578V17H89.0234V10.2812C89.0234 9.66146 89.1406 9.08073 89.375 8.53906C89.6094 7.99219 89.9271 7.51562 90.3281 7.10938C90.7344 6.70312 91.2083 6.38281 91.75 6.14844C92.2969 5.91406 92.8802 5.79688 93.5 5.79688C94.1198 5.79688 94.7005 5.91406 95.2422 6.14844C95.7891 6.38281 96.2656 6.70312 96.6719 7.10938C97.0781 7.51562 97.3984 7.99219 97.6328 8.53906C97.8672 9.08073 97.9844 9.66146 97.9844 10.2812V17ZM101.852 17H99.7031V5.30469H101.852V17ZM109.633 16.0234C109.461 16.1797 109.276 16.3281 109.078 16.4688C108.885 16.6042 108.682 16.724 108.469 16.8281C108.255 16.9271 108.034 17.0052 107.805 17.0625C107.581 17.125 107.352 17.1562 107.117 17.1562C106.602 17.1562 106.117 17.0651 105.664 16.8828C105.211 16.7005 104.812 16.4427 104.469 16.1094C104.13 15.7708 103.862 15.362 103.664 14.8828C103.471 14.3984 103.375 13.8568 103.375 13.2578V8.63281H105.5V13.2578C105.5 13.5391 105.542 13.7917 105.625 14.0156C105.714 14.2344 105.831 14.4193 105.977 14.5703C106.122 14.7214 106.292 14.8359 106.484 14.9141C106.682 14.9922 106.893 15.0312 107.117 15.0312C107.336 15.0312 107.542 14.9818 107.734 14.8828C107.932 14.7786 108.104 14.6432 108.25 14.4766C108.396 14.3099 108.51 14.1224 108.594 13.9141C108.677 13.7005 108.719 13.4818 108.719 13.2578V8.63281H110.852V17H110.336L109.633 16.0234ZM114.617 17H112.484V8.63281H113L113.703 9.44531C114.047 9.13281 114.435 8.89323 114.867 8.72656C115.305 8.55469 115.76 8.46875 116.234 8.46875C116.745 8.46875 117.227 8.56771 117.68 8.76562C118.133 8.95833 118.529 9.22656 118.867 9.57031C119.206 9.90885 119.471 10.3073 119.664 10.7656C119.862 11.2188 119.961 11.7031 119.961 12.2188V17H117.828V12.2188C117.828 12 117.786 11.7943 117.703 11.6016C117.62 11.4036 117.505 11.2318 117.359 11.0859C117.214 10.9401 117.044 10.8255 116.852 10.7422C116.659 10.6589 116.453 10.6172 116.234 10.6172C116.01 10.6172 115.799 10.6589 115.602 10.7422C115.404 10.8255 115.232 10.9401 115.086 11.0859C114.94 11.2318 114.826 11.4036 114.742 11.6016C114.659 11.7943 114.617 12 114.617 12.2188V17ZM129.57 12.7422C129.57 13.3672 129.458 13.9505 129.234 14.4922C129.01 15.0286 128.706 15.4948 128.32 15.8906C127.935 16.2812 127.482 16.5911 126.961 16.8203C126.445 17.0443 125.891 17.1562 125.297 17.1562C124.708 17.1562 124.154 17.0443 123.633 16.8203C123.117 16.5911 122.664 16.2812 122.273 15.8906C121.888 15.4948 121.583 15.0286 121.359 14.4922C121.135 13.9505 121.023 13.3672 121.023 12.7422C121.023 12.1068 121.135 11.5182 121.359 10.9766C121.583 10.4349 121.888 9.96875 122.273 9.57812C122.664 9.18229 123.117 8.8724 123.633 8.64844C124.154 8.42448 124.708 8.3125 125.297 8.3125C125.891 8.3125 126.445 8.41927 126.961 8.63281C127.482 8.84115 127.935 9.14062 128.32 9.53125C128.706 9.91667 129.01 10.3828 129.234 10.9297C129.458 11.4714 129.57 12.0755 129.57 12.7422ZM127.422 12.7422C127.422 12.3984 127.365 12.0885 127.25 11.8125C127.141 11.5312 126.99 11.2917 126.797 11.0938C126.604 10.8906 126.378 10.737 126.117 10.6328C125.862 10.5234 125.589 10.4688 125.297 10.4688C125.005 10.4688 124.729 10.5234 124.469 10.6328C124.214 10.737 123.99 10.8906 123.797 11.0938C123.609 11.2917 123.461 11.5312 123.352 11.8125C123.242 12.0885 123.188 12.3984 123.188 12.7422C123.188 13.0651 123.242 13.3646 123.352 13.6406C123.461 13.9167 123.609 14.1562 123.797 14.3594C123.99 14.5625 124.214 14.724 124.469 14.8438C124.729 14.9583 125.005 15.0156 125.297 15.0156C125.589 15.0156 125.862 14.9609 126.117 14.8516C126.378 14.7422 126.604 14.5885 126.797 14.3906C126.99 14.1927 127.141 13.9531 127.25 13.6719C127.365 13.3906 127.422 13.0807 127.422 12.7422Z" fill="#00C4CC"/>
<path d="M157 12.5L138.25 23.3253L138.25 1.67468L157 12.5Z" fill="#00C4CC"/>
</svg>
